<svg id="Layer_1" data-name="Layer 1" xmlns="http://www.w3.org/2000/svg" viewBox="0 0 2 2"><defs><style>.cls-1{font-size:0.31px;fill:#f26722;font-family:Poppins-Bold, Poppins;font-weight:700;}.cls-2{fill:#1b3665;}.cls-3{fill:#fff;}</style></defs><text class="cls-1" transform="translate(1.84 1.58) rotate(-90) scale(0.99 1)">Cargos</text><path class="cls-2" d="M.1.4V.12h1A.46.46,0,0,1,1.57.6v.81a.46.46,0,0,1-.47.47H.1V1.6h1a.2.2,0,0,0,.22-.21c0-.26,0-.52,0-.77S1.22.4,1.08.4H.1Z"/><path class="cls-2" d="M1.21.75H.91C.85.75.82.77.85.85h.23c.09,0,.13,0,.13.13v.4c0,.08,0,.12-.12.12a2.8,2.8,0,0,0-.41,0c-.08,0-.12,0-.11-.12V.6Q.56.47.69.48h.38c.12,0,.14,0,.14.14Z"/><rect class="cls-3" x="0.81" y="1.11" width="0.15" height="0.15"/><path class="cls-2" d="M.11.75a1.21,1.21,0,0,1,0-.19A.08.08,0,0,1,.2.48H.48v1H.21V.82C.21.74.2.76.14.76Z"/></svg>