<svg width="52" height="48" viewBox="0 0 52 48" fill="none" xmlns="http://www.w3.org/2000/svg">
<path d="M48.1017 7.00781C34.6377 32.5438 17.3576 32.5198 3.89355 7.00781" stroke="black" stroke-width="3.6" stroke-linecap="round" stroke-linejoin="round"/>
<path d="M1.97656 11.7367V35.7367C1.97656 38.2829 2.98799 40.7244 4.78833 42.5249C6.58869 44.3251 9.0305 45.3367 11.5766 45.3367H40.3765C42.9227 45.3367 45.3644 44.3251 47.1647 42.5249C48.9651 40.7244 49.9765 38.2829 49.9765 35.7367V11.7367C49.9765 9.19065 48.9651 6.7487 47.1647 4.94834C45.3644 3.14801 42.9227 2.13672 40.3765 2.13672H11.5766C9.0305 2.13672 6.58869 3.14801 4.78833 4.94834C2.98799 6.7487 1.97656 9.19065 1.97656 11.7367Z" stroke="black" stroke-width="3.6" stroke-linecap="round" stroke-linejoin="round"/>
</svg>
