<svg width="60" height="60" viewBox="0 0 60 60" fill="none" xmlns="http://www.w3.org/2000/svg">
<path d="M30 55C43.8071 55 55 43.8071 55 30C55 16.1929 43.8071 5 30 5C16.1929 5 5 16.1929 5 30C5 43.8071 16.1929 55 30 55Z" fill="#0077B5"/>
<path fill-rule="evenodd" clip-rule="evenodd" d="M23.4683 17.8549C23.4683 19.4113 22.2833 20.6708 20.4302 20.6708C18.6492 20.6708 17.4641 19.4113 17.5008 17.8549C17.4641 16.2229 18.6491 15 20.4657 15C22.2833 15 23.4328 16.2229 23.4683 17.8549ZM17.6498 41.0239V22.8953H23.2838V41.0226L17.6498 41.0239Z" fill="white"/>
<path fill-rule="evenodd" clip-rule="evenodd" d="M27.7994 28.6821C27.7994 26.4209 27.7249 24.4932 27.6504 22.8991H32.5441L32.8043 25.3826H32.9155C33.657 24.2331 35.5101 22.4922 38.5129 22.4922C42.2193 22.4922 44.9996 24.9391 44.9996 30.2751V41.0276H39.3655V30.9811C39.3655 28.6443 38.5508 27.0512 36.5119 27.0512C34.9544 27.0512 34.0283 28.1262 33.6581 29.1634C33.5091 29.5348 33.4358 30.0528 33.4358 30.5731V41.0276H27.8016V28.6821H27.7994Z" fill="white"/>
</svg>
