<svg width="46" height="60" viewBox="0 0 46 60" fill="none" xmlns="http://www.w3.org/2000/svg">
<path d="M23 0C10.5744 0 0.5 10.0744 0.5 22.5C0.5 27.3928 2.10406 31.8825 4.77031 35.5594C4.81813 35.6475 4.82562 35.7459 4.88 35.8303L19.88 58.3303C20.5756 59.3738 21.7475 60 23 60C24.2525 60 25.4244 59.3738 26.12 58.3303L41.12 35.8303C41.1753 35.7459 41.1819 35.6475 41.2297 35.5594C43.8959 31.8825 45.5 27.3928 45.5 22.5C45.5 10.0744 35.4256 0 23 0ZM23 30C18.8581 30 15.5 26.6419 15.5 22.5C15.5 18.3581 18.8581 15 23 15C27.1419 15 30.5 18.3581 30.5 22.5C30.5 26.6419 27.1419 30 23 30Z" fill="#231F20"/>
</svg>
