<svg width="46" height="46" viewBox="0 0 46 46" fill="none" xmlns="http://www.w3.org/2000/svg">
<path d="M31.8905 29.3692L30.7517 30.568C30.7517 30.568 28.0452 33.4175 20.6577 25.6397C13.2703 17.8621 15.9767 15.0127 15.9767 15.0127L16.6938 14.2578C18.4602 12.3981 18.6267 9.41243 17.0856 7.23275L13.9331 2.77403C12.0257 0.0762506 8.33989 -0.280125 6.15362 2.0216L2.22962 6.15285C1.14557 7.29415 0.419121 8.77363 0.507221 10.4149C0.732596 14.6137 2.52677 23.6475 12.5384 34.188C23.1552 45.3655 33.117 45.8097 37.1907 45.4078C38.4792 45.2805 39.5997 44.5858 40.5027 43.635L44.0542 39.896C46.4515 37.3722 45.7755 33.0455 42.7082 31.28L37.932 28.5308C35.918 27.3715 33.4645 27.712 31.8905 29.3692Z" fill="black"/>
</svg>
