<svg width="39" height="37" viewBox="0 0 39 37" fill="none" xmlns="http://www.w3.org/2000/svg">
<path d="M35 0H3.5C2.57174 0 1.6815 0.368749 1.02513 1.02513C0.368749 1.6815 0 2.57174 0 3.5V7H38.5V3.5C38.5 2.57174 38.1312 1.6815 37.4749 1.02513C36.8185 0.368749 35.9283 0 35 0ZM5.25 5.25C4.90388 5.25 4.56554 5.14736 4.27775 4.95507C3.98997 4.76278 3.76566 4.48947 3.63321 4.1697C3.50076 3.84993 3.4661 3.49806 3.53363 3.15859C3.60115 2.81913 3.76782 2.5073 4.01256 2.26256C4.25731 2.01782 4.56913 1.85115 4.90859 1.78363C5.24806 1.7161 5.59993 1.75076 5.9197 1.88321C6.23947 2.01566 6.51278 2.23997 6.70507 2.52775C6.89736 2.81554 7 3.15388 7 3.5C7 3.96413 6.81563 4.40925 6.48744 4.73744C6.15925 5.06563 5.71413 5.25 5.25 5.25ZM10.5 5.25C10.1539 5.25 9.81554 5.14736 9.52775 4.95507C9.23997 4.76278 9.01566 4.48947 8.88321 4.1697C8.75076 3.84993 8.7161 3.49806 8.78363 3.15859C8.85115 2.81913 9.01782 2.5073 9.26256 2.26256C9.50731 2.01782 9.81913 1.85115 10.1586 1.78363C10.4981 1.7161 10.8499 1.75076 11.1697 1.88321C11.4895 2.01566 11.7628 2.23997 11.9551 2.52775C12.1474 2.81554 12.25 3.15388 12.25 3.5C12.2486 3.9637 12.0638 4.40802 11.7359 4.73591C11.408 5.0638 10.9637 5.24862 10.5 5.25ZM38.5 15.75V8.75H0V33.25C0 34.1783 0.368749 35.0685 1.02513 35.7249C1.6815 36.3812 2.57174 36.75 3.5 36.75H35C35.9283 36.75 36.8185 36.3812 37.4749 35.7249C38.1312 35.0685 38.5 34.1783 38.5 33.25V15.75Z" fill="white"/>
</svg>
