<svg width="90" height="81" viewBox="0 0 90 81" fill="none" xmlns="http://www.w3.org/2000/svg">
<path d="M50.94 44.7895C50.9903 44.7217 51.0419 44.6551 51.0934 44.5882C51.1434 44.5238 51.1944 44.4599 51.2458 44.3962C51.3258 44.2973 51.4067 44.1995 51.4894 44.1028C51.5275 44.0584 51.5659 44.0143 51.6045 43.9703C51.7055 43.8551 51.8087 43.742 51.9137 43.6306C51.9412 43.6013 51.9688 43.5726 51.9963 43.5435C52.1192 43.4157 52.2447 43.2903 52.3727 43.1674C52.3867 43.154 52.4006 43.1404 52.4147 43.1271C53.2353 42.3462 54.1575 41.6717 55.1612 41.1248C55.1719 41.119 55.1825 41.1135 55.193 41.1078C55.3575 41.0187 55.5241 40.9331 55.6925 40.851C55.7209 40.8373 55.7492 40.8237 55.7777 40.8099C55.9247 40.7399 56.0733 40.6724 56.2233 40.6078C56.2498 40.5962 56.2763 40.584 56.303 40.5728H51.0697C51.0509 42.0873 50.9517 43.5753 50.7695 45.0229C50.8252 44.9445 50.8823 44.8667 50.94 44.7895Z" fill="#FF8E26"/>
<path d="M35.843 59.8001C34.3933 58.7282 33.0719 57.0773 31.9572 54.909C31.3469 53.7215 30.8205 52.4161 30.3794 51.0225C28.313 51.432 26.2496 51.9731 24.1919 52.6467C27.0766 56.2425 31.1658 58.8334 35.843 59.8001Z" fill="#FF8E26"/>
<path d="M39.4207 40.5728H29.8213C29.8627 43.8685 30.3019 47.0287 31.096 49.8435C33.8694 49.3451 36.6468 49.0785 39.4205 49.0467V40.5728H39.4207Z" fill="#FF8E26"/>
<path d="M23.5371 51.7847C25.7141 51.057 27.8982 50.474 30.0854 50.0362C29.2809 47.1517 28.8377 43.9271 28.7965 40.5732H19.7715C19.8762 44.7467 21.2573 48.6087 23.5371 51.7847Z" fill="#FF8E26"/>
<path d="M56.2713 28.269C54.11 28.9967 51.9378 29.579 49.7583 30.0158C50.5764 32.9189 51.028 36.168 51.0696 39.5481H60.0827C59.9774 35.3448 58.5788 31.4576 56.2713 28.269Z" fill="#FF8E26"/>
<path d="M30.7237 31.7138C30.1562 34.1748 29.8554 36.8082 29.8218 39.5479H39.4208V30.9924C36.7144 30.9637 34.0076 30.7121 31.3062 30.2368C31.2879 30.2928 31.2705 30.3488 31.2516 30.4045C31.214 30.5146 31.1737 30.6237 31.1332 30.7329C31.1124 30.7885 31.0916 30.8442 31.0701 30.8996C31.0254 31.0148 30.9794 31.1295 30.9315 31.2434C30.9165 31.2788 30.9007 31.3138 30.8855 31.3493C30.8326 31.4712 30.7802 31.5934 30.7237 31.7138Z" fill="#FF8E26"/>
<path d="M31.8158 28.0635C31.788 28.2567 31.7543 28.4484 31.7177 28.6396C31.7065 28.6996 31.6938 28.7592 31.6818 28.8188C31.6569 28.9392 31.6307 29.059 31.6026 29.1784C31.5972 29.2012 31.5929 29.2245 31.5874 29.2471C34.1947 29.7003 36.808 29.9406 39.4205 29.9688V19.9321C36.4424 20.2417 33.6313 23.2295 31.8158 28.0635Z" fill="#FF8E26"/>
<path d="M29.2221 34.1582C28.9244 34.5409 28.6064 34.9107 28.2636 35.2626C27.7708 35.7684 27.2414 36.2263 26.6844 36.6398C26.6824 36.6412 26.6811 36.6432 26.6791 36.6446C26.6692 36.652 26.6589 36.6587 26.6491 36.6659C25.5428 37.4812 24.3219 38.1107 23.0256 38.537C23.0221 38.5382 23.0185 38.5395 23.0147 38.5405C22.8547 38.5932 22.6935 38.6427 22.531 38.6891C22.5303 38.6893 22.5296 38.6896 22.5288 38.6898C21.6424 38.9423 20.7253 39.1041 19.7881 39.164C19.7824 39.2912 19.7778 39.4196 19.7739 39.548H28.7969C28.8191 37.6987 28.9613 35.8962 29.2221 34.1582Z" fill="#FF8E26"/>
<path d="M16.4556 26.5481C16.5634 26.4513 16.7069 26.4046 16.8514 26.4192C16.9956 26.4341 17.1269 26.5094 17.2125 26.6266L18.9563 29.013L20.7113 26.6255C20.797 26.5088 20.928 26.4339 21.0722 26.4192C21.2161 26.4044 21.3597 26.4514 21.4673 26.5483L22.2397 27.2446L26.562 28.9408C26.7581 29.0178 26.8873 29.2071 26.8873 29.4178V35.1446C29.3605 32.9506 30.9233 29.7522 30.9233 26.1942C30.9233 25.9911 30.918 25.7892 30.9078 25.5888C30.9067 25.5664 30.9044 25.5442 30.9033 25.5219C30.8363 24.3208 30.5928 23.1661 30.1961 22.0845C30.1959 22.0839 30.1956 22.0833 30.1955 22.0827C28.5148 17.5031 24.1105 14.2271 18.9552 14.2271C12.3631 14.2271 7 19.5956 7 26.1944C7 29.7544 8.56281 32.9546 11.0359 35.1485V29.418C11.0359 29.2072 11.165 29.0178 11.3613 28.941L15.6833 27.2447L16.4556 26.5481ZM19.0269 17.0064C21.3348 17.0064 23.2128 18.8844 23.2128 21.1928C23.2128 23.2864 21.8139 27.0264 19.0269 27.0264C16.278 27.0264 14.8398 23.2288 14.8398 21.1928C14.8398 18.8844 16.7181 17.0064 19.0269 17.0064Z" fill="#FF8E26"/>
<path d="M19.0268 26.0013C20.9876 26.0013 22.1877 22.888 22.1877 21.1927C22.1877 19.4494 20.7697 18.0312 19.0268 18.0312C17.2832 18.0312 15.8647 19.4494 15.8647 21.1927C15.8647 22.888 17.0652 26.0013 19.0268 26.0013Z" fill="#FF8E26"/>
<path d="M31.8868 24.9366C31.8938 25.0115 31.901 25.0865 31.9068 25.1616C31.9103 25.2048 31.9131 25.248 31.916 25.2912C33.0359 23.1009 34.3934 21.4095 35.8848 20.3145C34.2695 20.6434 32.696 21.1663 31.2134 21.8737C31.5435 22.8002 31.7604 23.7651 31.8679 24.7571C31.8746 24.817 31.881 24.8768 31.8868 24.9366Z" fill="#FF8E26"/>
<path d="M19.9207 30.0732L21.3081 27.7843L21.202 27.6885L19.6396 29.8136L19.9207 30.0732Z" fill="#FF8E26"/>
<path d="M16.6011 27.797L17.9151 30.1954L18.2823 29.8279L16.7198 27.6899L16.6011 27.797Z" fill="#FF8E26"/>
<path d="M39.4205 50.0723C36.7467 50.1038 34.0687 50.3571 31.3945 50.8312C31.8103 52.1241 32.3016 53.3365 32.8691 54.4404C34.6595 57.9235 36.9694 59.9432 39.4206 60.1909L39.4205 50.0723Z" fill="#FF8E26"/>
<path d="M63.7131 54.1261L63.605 54.0273L62.0425 56.1617L62.3162 56.4175L63.7131 54.1261Z" fill="#FF8E26"/>
<path d="M44.0186 20.3208C45.4675 21.3925 46.7887 23.0433 47.9039 25.2114C48.505 26.3799 49.0243 27.6628 49.4614 29.0306C51.5197 28.6225 53.5718 28.0824 55.6142 27.4094C52.7339 23.8463 48.6661 21.2813 44.0186 20.3208Z" fill="#FF8E26"/>
<path d="M60.687 56.1716L59.1261 54.0283L59.0039 54.1404L60.3109 56.5435L60.687 56.1716Z" fill="#FF8E26"/>
<path d="M61.431 44.377C59.688 44.377 58.27 45.7951 58.27 47.5382C58.27 49.2337 59.4703 52.3474 61.431 52.3474C63.3925 52.3474 64.593 49.2335 64.593 47.5382C64.5931 45.7951 63.1747 44.377 61.431 44.377Z" fill="#FF8E26"/>
<path d="M64.8787 41.1015C64.79 34.5171 62.2054 27.3405 57.5753 22.6204C53.1275 18.0863 47.3304 15.4655 41.1404 15.1637L42.429 13.8749C42.6289 13.6747 42.6289 13.3502 42.4287 13.1501C42.2286 12.9499 41.9042 12.9501 41.7039 13.1501L39.5711 15.2838C39.5665 15.2883 39.5632 15.2938 39.5587 15.2985C39.5406 15.318 39.5229 15.338 39.5082 15.3597C39.5079 15.3602 39.5079 15.3607 39.5076 15.361C39.4898 15.3877 39.4746 15.4158 39.4621 15.4449C39.4582 15.454 39.4562 15.4638 39.4529 15.4732C39.4453 15.4944 39.4376 15.5157 39.4328 15.5379C39.4303 15.549 39.4298 15.5607 39.4284 15.5719C39.4253 15.5935 39.4221 15.6149 39.4218 15.6368C39.4218 15.6401 39.4209 15.643 39.4209 15.6465C39.4209 15.6563 39.4234 15.6655 39.424 15.6754C39.425 15.6952 39.4264 15.7151 39.43 15.7347C39.4325 15.7494 39.4364 15.7632 39.44 15.7771C39.4445 15.7944 39.4495 15.8113 39.4557 15.828C39.4614 15.8427 39.4678 15.8565 39.4746 15.8704C39.482 15.8854 39.4896 15.9001 39.4986 15.9146C39.5073 15.9287 39.5167 15.9418 39.5267 15.9549C39.5323 15.9622 39.5365 15.9707 39.5428 15.9779L41.522 18.3122C41.6236 18.4318 41.7679 18.4932 41.9132 18.4932C42.0303 18.4932 42.1481 18.4533 42.2443 18.3715C42.4604 18.1885 42.487 17.8652 42.3039 17.6493L41.0659 16.1891C53.5334 16.8362 63.5365 28.0901 63.8504 40.8351C63.0468 40.6643 62.2143 40.5727 61.3603 40.5727C61.0581 40.5727 60.7595 40.5877 60.4629 40.6099C60.3345 40.6194 60.2057 40.6288 60.0784 40.6422C59.9914 40.6516 59.9054 40.6641 59.8189 40.6752C59.7131 40.6888 59.607 40.7015 59.502 40.7177C59.3753 40.7374 59.2503 40.7613 59.1248 40.7852C59.0617 40.7972 58.9978 40.8072 58.9353 40.8202C56.6072 41.3012 54.524 42.4602 52.9028 44.0815C52.9026 44.0818 52.9023 44.0821 52.9023 44.0821C52.7706 44.2137 52.6423 44.3485 52.5168 44.4862C52.5076 44.4963 52.4986 44.5068 52.4892 44.5169C52.3737 44.6444 52.2611 44.7744 52.1512 44.9069C52.1345 44.9274 52.1176 44.948 52.1009 44.9685C52.0001 45.0915 51.902 45.2165 51.8061 45.3435C51.7832 45.3736 51.7606 45.4044 51.7378 45.4347C51.6503 45.553 51.5651 45.673 51.4818 45.7946C51.4542 45.8351 51.4267 45.8757 51.3996 45.9163C51.3242 46.0296 51.2509 46.1441 51.1792 46.2599C51.1481 46.3099 51.1173 46.3602 51.087 46.4108C51.0222 46.5193 50.9593 46.629 50.8978 46.7396C50.8648 46.7988 50.832 46.858 50.8001 46.9179C50.7445 47.0219 50.6911 47.1272 50.6384 47.2332C50.6048 47.301 50.5712 47.3683 50.5389 47.4365C50.4912 47.5369 50.4461 47.6386 50.4012 47.7404C50.3682 47.8152 50.3351 47.8899 50.3039 47.9657C50.2634 48.0632 50.2251 48.1622 50.1873 48.261C50.1561 48.3424 50.1245 48.4237 50.0948 48.5057C50.0604 48.6012 50.0287 48.698 49.9968 48.7947C49.9681 48.8815 49.9389 48.9677 49.9123 49.0554C49.8832 49.1505 49.857 49.2471 49.8306 49.3433C49.8053 49.4333 49.7796 49.5232 49.7565 49.6141C49.732 49.7107 49.7109 49.8088 49.6889 49.9063C49.6681 49.9982 49.6465 50.0896 49.6278 50.1821C49.6089 50.2758 49.5936 50.3705 49.5771 50.4651C49.5756 50.4769 49.5762 50.489 49.5739 50.5013C49.5721 50.5105 49.5682 50.5187 49.5661 50.5279C49.5593 50.5676 49.552 50.6069 49.5456 50.6468C49.5318 50.7347 49.5184 50.823 49.5071 50.911C49.5068 50.9113 49.5068 50.9116 49.5068 50.9119C49.4989 50.9697 49.4917 51.0277 49.4845 51.0858C49.4742 51.1721 49.4617 51.2577 49.4529 51.3443C49.4406 51.4699 49.4326 51.5968 49.424 51.7235C49.4192 51.7951 49.412 51.8658 49.4082 51.9379C49.3984 52.1372 49.3931 52.338 49.3931 52.5397C49.3931 52.733 49.3984 52.9251 49.4076 53.116C49.4086 53.1352 49.409 53.1544 49.41 53.1735C49.4198 53.359 49.434 53.5432 49.4523 53.7263C49.4542 53.7474 49.4562 53.7685 49.4586 53.7896C49.4776 53.9751 49.5011 54.159 49.5289 54.3415C49.5309 54.3557 49.5331 54.3699 49.5354 54.3838C49.6256 54.9649 49.7576 55.5322 49.9286 56.0827C49.9307 56.0893 49.9326 56.096 49.9348 56.1027C50.594 58.2119 51.8237 60.0702 53.4406 61.5007V55.7632C53.4406 55.5522 53.5695 55.3632 53.7657 55.2862L58.0857 53.5905L58.8561 52.8847C58.9636 52.786 59.1084 52.7379 59.2534 52.7526C59.3987 52.7672 59.5307 52.8429 59.6165 52.9608L61.3609 55.3565L63.1154 52.9597C63.2015 52.8422 63.3336 52.7669 63.4784 52.7526C63.6239 52.738 63.7678 52.7862 63.8751 52.8846L64.6457 53.5905L68.9543 55.2863C69.1504 55.3635 69.2792 55.5524 69.2792 55.7632V61.5007C71.759 59.3063 73.3267 56.1033 73.3267 52.5394C73.3271 47.1654 69.7654 42.6077 64.8787 41.1015ZM61.4307 53.3726C58.6825 53.3726 57.245 49.5743 57.245 47.5383C57.245 45.2302 59.1228 43.3521 61.4307 43.3521C63.7393 43.3521 65.6178 45.2302 65.6178 47.5383C65.6178 49.5744 64.1798 53.3726 61.4307 53.3726Z" fill="#FF8E26"/>
<path d="M62.8643 57.4883C62.784 57.6198 62.6488 57.7083 62.4963 57.7292C62.4732 57.7325 62.4497 57.734 62.4268 57.734C62.4183 57.734 62.4101 57.732 62.4016 57.7315C62.3877 57.7308 62.374 57.7294 62.3602 57.7278C62.3385 57.7248 62.3174 57.7206 62.2965 57.7148C62.2832 57.7115 62.2702 57.7083 62.2574 57.7037C62.2354 57.6961 62.2144 57.6861 62.1935 57.6751C62.183 57.6698 62.1722 57.6655 62.1622 57.6594C62.1322 57.6412 62.1033 57.6205 62.0771 57.5961L61.3708 56.9367L60.5476 57.7515C60.5208 57.778 60.4913 57.8004 60.4601 57.82C60.4502 57.8259 60.4396 57.8304 60.4296 57.8361C60.4072 57.8481 60.3847 57.8589 60.3612 57.8676C60.3485 57.872 60.3357 57.8756 60.3229 57.879C60.3001 57.8853 60.2774 57.89 60.254 57.8933C60.2402 57.895 60.2266 57.8965 60.2127 57.8972C60.2041 57.8976 60.196 57.8998 60.1871 57.8998C60.1624 57.8998 60.1374 57.898 60.1124 57.8944C59.9929 57.8767 59.8846 57.8178 59.8055 57.7295C59.7793 57.7001 59.7562 57.6676 59.7369 57.6322L58.1285 54.6753L54.4663 56.1126V62.3123C54.5029 62.3381 54.539 62.3648 54.5758 62.3903C54.6396 62.4342 54.7033 62.4778 54.7679 62.5203C54.8504 62.5751 54.9341 62.6281 55.0182 62.6809C55.0832 62.7219 55.148 62.7633 55.2138 62.8029C55.3493 62.8844 55.486 62.9633 55.6246 63.0395C55.6721 63.0653 55.7197 63.0897 55.7677 63.115C55.8251 63.1454 55.8833 63.1745 55.9413 63.204V57.7901C55.9413 57.507 56.1708 57.2778 56.4538 57.2778C56.7368 57.2778 56.9663 57.5072 56.9663 57.7901V63.6675C57.0438 63.6981 57.1207 63.7303 57.1993 63.7595C57.221 63.7676 57.2426 63.7765 57.2643 63.7844C57.4399 63.8486 57.6176 63.9089 57.7966 63.965C57.8107 63.9692 57.8247 63.9731 57.8388 63.9773C57.9986 64.0267 58.1604 64.0723 58.3232 64.1153C58.3607 64.1251 58.3985 64.1345 58.4361 64.1442C58.5852 64.1817 58.7352 64.2164 58.8866 64.2483C58.919 64.2551 58.9511 64.2626 58.9838 64.2692C59.3444 64.3423 59.711 64.3983 60.0826 64.4381C60.1315 64.4431 60.1808 64.4475 60.2299 64.4522C60.3685 64.4653 60.5072 64.4756 60.6469 64.4839C60.6996 64.4872 60.7519 64.4904 60.8046 64.4929C60.989 64.5017 61.1743 64.5072 61.3608 64.5072C61.549 64.5072 61.7354 64.5017 61.9213 64.4929C61.9699 64.4906 62.0177 64.4875 62.066 64.4847C62.216 64.4759 62.3654 64.4648 62.5138 64.4504C62.5505 64.447 62.5879 64.4437 62.6246 64.44C63.7232 64.3242 64.7768 64.0567 65.7669 63.6631V57.7901C65.7669 57.507 65.9965 57.2778 66.2794 57.2778C66.5624 57.2778 66.7918 57.5072 66.7918 57.7901V63.1983C67.2087 62.985 67.6126 62.7498 67.9996 62.4909C68.0355 62.4667 68.0715 62.442 68.1074 62.4173C68.1571 62.3831 68.2058 62.3472 68.2551 62.3122V56.1122L64.5836 54.6675L62.8643 57.4883Z" fill="#FF8E26"/>
<path d="M40.4453 39.5478H50.0445C50.0027 36.2255 49.5553 33.0405 48.7472 30.2075C45.9873 30.703 43.2173 30.9649 40.4453 30.993V39.5478Z" fill="#FF8E26"/>
<path d="M40.4453 29.9699C43.1169 29.9421 45.7864 29.6931 48.4466 29.2224C48.0348 27.955 47.5506 26.765 46.9923 25.6803C45.2006 22.1975 42.8927 20.1781 40.4453 19.9302V29.9699Z" fill="#FF8E26"/>
<path d="M49.0521 56.7019C49.0189 56.6039 48.9868 56.5055 48.9562 56.407C48.9542 56.4006 48.9525 56.3944 48.9503 56.3881C48.9207 56.2925 48.892 56.1966 48.8647 56.1005C48.8625 56.0935 48.8606 56.086 48.8586 56.0788C48.8311 55.9822 48.8046 55.8855 48.7796 55.7883C48.7782 55.7827 48.7768 55.7772 48.7754 55.7714C48.75 55.672 48.7257 55.5725 48.7025 55.4727C48.7018 55.47 48.7012 55.4675 48.7006 55.4649C48.5748 54.9202 48.4848 54.3678 48.4304 53.8091C47.2342 56.4988 45.7195 58.5397 44.0186 59.7967C45.9243 59.4028 47.7682 58.7364 49.4829 57.8106C49.3218 57.4461 49.179 57.0766 49.0525 56.703C49.0525 56.703 49.0521 56.7024 49.0521 56.7019Z" fill="#FF8E26"/>
<path d="M40.4453 49.0471C43.1898 49.0726 45.93 49.3276 48.6577 49.812C48.6586 49.8073 48.6597 49.8023 48.6608 49.7978C48.682 49.6979 48.7045 49.5984 48.7284 49.4989C48.7289 49.4967 48.7295 49.4946 48.73 49.4925C48.7945 49.2239 48.8681 48.9567 48.9506 48.6911C48.9525 48.6851 48.9544 48.679 48.9564 48.6731C48.9866 48.5762 49.018 48.4797 49.0505 48.3834C49.0523 48.3779 49.0542 48.3728 49.0559 48.3675C49.0588 48.3595 49.0614 48.3517 49.0639 48.3442C49.0642 48.3439 49.0642 48.3436 49.0642 48.3432C49.1273 48.1587 49.1936 47.9753 49.2653 47.7928C49.7536 45.5045 50.0131 43.0778 50.0448 40.5732H40.4455V49.0471H40.4453Z" fill="#FF8E26"/>
<path d="M40.4453 60.1872C43.6662 59.8471 46.6986 56.3276 48.4686 50.8188C45.8041 50.3465 43.1272 50.0972 40.4453 50.0718V60.1872Z" fill="#FF8E26"/>
<path d="M40.4427 64.4571C40.4416 64.4371 40.4401 64.4173 40.4368 64.3974C40.4343 64.383 40.4304 64.3693 40.4268 64.3552C40.4223 64.338 40.4173 64.3207 40.4107 64.3038C40.4054 64.2894 40.399 64.2757 40.3923 64.2621C40.3846 64.2468 40.3768 64.2318 40.3679 64.2171C40.3593 64.2034 40.3499 64.1904 40.3401 64.1774C40.3341 64.1696 40.3298 64.161 40.3234 64.1535L38.3321 61.8191C38.1484 61.6037 37.8249 61.5782 37.6096 61.7618C37.3943 61.9455 37.3687 62.269 37.5523 62.4843L38.7991 63.946C26.138 63.3516 16.0201 52.8659 16.0201 40.0604C16.0201 39.6132 16.0318 38.5837 16.0549 37.803C16.2062 37.841 16.3584 37.877 16.5121 37.909C16.5304 37.9127 16.5484 37.917 16.5668 37.9207C16.9326 37.9952 17.3045 38.0523 17.6815 38.0923C17.7276 38.0973 17.774 38.1013 17.8202 38.1057C17.9609 38.119 18.1023 38.1296 18.2441 38.138C18.2955 38.141 18.347 38.1445 18.3984 38.147C18.583 38.1554 18.7684 38.1612 18.9551 38.1612C19.1427 38.1612 19.329 38.1554 19.5145 38.1468C19.5638 38.1446 19.613 38.1412 19.6624 38.1384C19.8096 38.1298 19.9562 38.1188 20.1021 38.1049C20.1423 38.1012 20.1826 38.0977 20.2226 38.0934C21.3198 37.9774 22.3721 37.7104 23.3612 37.3171V31.4443C23.3612 31.1612 23.5907 30.9318 23.8737 30.9318C24.1568 30.9318 24.3862 31.1612 24.3862 31.4443V36.8526C24.9009 36.5893 25.3938 36.2901 25.8623 35.9577V29.7673L22.1804 28.3223L20.4721 31.141C20.4521 31.1738 20.4288 31.204 20.4026 31.2312C20.324 31.3126 20.2198 31.3666 20.1055 31.3827C20.0816 31.3862 20.0576 31.3877 20.034 31.3877C20.0257 31.3877 20.0177 31.3859 20.0096 31.3854C19.9963 31.3849 19.9834 31.3834 19.9704 31.382C19.9479 31.379 19.926 31.3748 19.9043 31.369C19.8918 31.3657 19.8796 31.3626 19.8674 31.3584C19.8446 31.3505 19.823 31.3405 19.8016 31.3296C19.7918 31.3245 19.7815 31.3204 19.7718 31.3146C19.7416 31.2965 19.7127 31.276 19.6865 31.2518L18.9696 30.5904L18.1568 31.4035C18.1301 31.4302 18.1004 31.4529 18.069 31.4727C18.0598 31.4785 18.0501 31.4827 18.0405 31.4879C18.0173 31.5009 17.9937 31.5123 17.9688 31.5213C17.9574 31.5254 17.9459 31.5284 17.934 31.5318C17.9099 31.5387 17.8855 31.544 17.8607 31.5471C17.8479 31.5488 17.8355 31.5501 17.8226 31.551C17.813 31.5513 17.8037 31.5537 17.7941 31.5537C17.7701 31.5537 17.7457 31.552 17.7216 31.5485C17.562 31.5257 17.4221 31.429 17.3448 31.2874L15.7241 28.3293L12.0605 29.7671V35.9615C12.529 36.2938 13.0218 36.593 13.5366 36.856V31.4441C13.5366 31.161 13.766 30.9316 14.0491 30.9316C14.3323 30.9316 14.5616 31.161 14.5616 31.4441V37.3201C14.7193 37.3827 14.8787 37.4421 15.0395 37.4987C15.0101 38.3129 14.9951 39.5446 14.9951 40.0604C14.9951 53.4049 25.5312 64.3344 38.7213 64.9687L37.4385 66.2444C37.2379 66.444 37.2371 66.7685 37.4366 66.9691C37.5368 67.0701 37.6682 67.1204 37.7999 67.1204C37.9305 67.1204 38.0613 67.0707 38.1613 66.9712L40.2946 64.8496L40.2951 64.849C40.3057 64.8385 40.314 64.8262 40.3235 64.8146C40.3351 64.8007 40.3479 64.7877 40.358 64.7729C40.3613 64.768 40.3634 64.7624 40.3666 64.7573C40.3807 64.7346 40.3941 64.7116 40.4045 64.6876C40.4084 64.678 40.4105 64.6677 40.4143 64.6579C40.4216 64.6369 40.4291 64.6162 40.4337 64.5949C40.4363 64.5835 40.4368 64.5716 40.4384 64.5598C40.4415 64.5385 40.4445 64.5174 40.4448 64.4959C40.4448 64.4926 40.4459 64.4894 40.4459 64.486C40.4459 64.4762 40.4434 64.4668 40.4427 64.4571Z" fill="#FF8E26"/>
</svg>
