<svg width="42" height="42" viewBox="0 0 42 42" fill="none" xmlns="http://www.w3.org/2000/svg">
<path d="M20.9996 0C13.6835 0 7.51305 0.351735 6.59251 0.818966C4.98458 1.2967 3.77462 4.47631 3.7706 8.24916V10.1233H3.33243C3.28854 10.0368 3.2288 9.95699 3.15556 9.88709C3.34472 9.69648 3.44887 9.45302 3.44901 9.20112V8.24916C3.47459 8.02645 3.39914 7.80387 3.23879 7.62894C3.07843 7.45402 2.84587 7.34061 2.59078 7.31295H0.866272C0.609274 7.34016 0.37492 7.45439 0.213926 7.63092C0.0529321 7.80744 -0.0217541 8.03205 0.00602974 8.25616V8.25266V9.20462C0.00602974 9.46711 0.116575 9.7086 0.299477 9.89234L0.297467 9.89059C0.108305 10.0812 0.00415513 10.3247 0.00401982 10.5766V15.2769C0.00133994 15.3037 0 15.3317 0 15.3609C0 15.7983 0.375854 16.1606 0.862252 16.2131H2.58877C2.75045 16.2058 2.90633 16.1583 3.03783 16.076C3.16932 15.9938 3.27089 15.8804 3.33042 15.7493L3.33243 15.7441H3.7706V24.1822C3.7706 24.5165 4.18263 24.8262 4.84791 24.9925V26.0879C3.89722 26.1947 3.23998 26.5674 3.23998 26.9944V36.374C3.1721 37.5364 3.55585 38.6848 4.32935 39.6341L4.31729 39.6184V41.23C4.31729 41.6553 4.71324 42 5.20165 42H8.81548C9.05002 42 9.27496 41.9189 9.44081 41.7745C9.60666 41.6301 9.69984 41.4342 9.69984 41.23V40.1258H32.3053V41.23C32.3053 41.6553 32.7013 42 33.1897 42H36.8035C36.9196 42 37.0346 41.9801 37.1419 41.9414C37.2492 41.9027 37.3467 41.846 37.4288 41.7745C37.511 41.703 37.5761 41.6181 37.6206 41.5247C37.665 41.4313 37.6879 41.3312 37.6879 41.23V39.6201C38.4558 38.6709 38.8352 37.5247 38.7652 36.3652V36.3775V26.9979C38.7652 26.5709 38.0999 26.1982 37.1573 26.0914V24.996C37.8225 24.8297 38.2326 24.52 38.2346 24.1857V15.7511H38.6727C38.7933 16.0171 39.0787 16.2043 39.4144 16.2201H41.1329C41.3899 16.1929 41.6242 16.0786 41.7852 15.9021C41.9462 15.7256 42.0209 15.501 41.9931 15.2769V15.2804V10.5801C41.9935 10.3276 41.8893 10.0834 41.6997 9.89234L41.7017 9.89409C41.8908 9.70348 41.995 9.46002 41.9951 9.20812V8.25966C42.0207 8.03695 41.9452 7.81437 41.7849 7.63944C41.6245 7.46452 41.392 7.35111 41.1369 7.32344H39.4104C39.1534 7.35066 38.919 7.46489 38.758 7.64142C38.597 7.81794 38.5223 8.04255 38.5501 8.26666V8.26316V9.21512C38.5501 9.4776 38.6607 9.7191 38.8436 9.90284L38.8416 9.90109C38.772 9.97049 38.7132 10.0476 38.6667 10.1303L38.6647 10.1356H38.2265V8.25266C38.2265 4.46056 37.0045 1.26695 35.3845 0.813716C34.3997 0.348236 28.2594 0.00349985 20.9996 0.00349985V0ZM6.23073 5.43702H35.7664C36.287 5.43702 36.7211 5.75901 36.8216 6.18774L36.8236 6.19299C37.0286 7.08545 37.1452 8.11266 37.1452 9.16437V9.23087V9.22737V15.7493C37.1452 16.2673 36.6628 16.6873 36.0679 16.6873H5.92522C5.6395 16.6873 5.36548 16.5885 5.16345 16.4126C4.96141 16.2367 4.84791 15.9981 4.84791 15.7493V9.16612C4.84925 8.11266 4.96247 7.08837 5.18758 6.09325L5.1695 6.19299C5.21791 5.97989 5.34978 5.78802 5.54259 5.65015C5.7354 5.51228 5.9772 5.43695 6.22671 5.43702H6.23073ZM7.53918 26.0617H9.84656C10.134 26.0617 10.3671 26.2577 10.3832 26.5044V26.5061L10.7671 32.5994V32.6239C10.7671 32.8829 10.5259 33.0929 10.2284 33.0929H7.53918C7.39665 33.092 7.26025 33.0423 7.15946 32.9545C7.05867 32.8667 7.00158 32.748 7.00053 32.6239V26.5306C7.00053 26.2717 7.24171 26.0617 7.53918 26.0617ZM32.1506 26.0617H34.4579C34.7554 26.0617 34.9966 26.2717 34.9966 26.5306V32.6186C34.9966 32.8776 34.7554 33.0876 34.4579 33.0876H31.7667C31.6241 33.0867 31.4877 33.037 31.3869 32.9492C31.2861 32.8615 31.2291 32.7427 31.228 32.6186V32.5924L31.6119 26.5009C31.632 26.2559 31.8652 26.0634 32.1486 26.0634L32.1506 26.0617ZM12.1158 27.1816H29.8834C30.0321 27.1816 30.1527 27.2866 30.1527 27.4161V27.6961C30.1527 27.8256 30.0321 27.9306 29.8834 27.9306H12.1158C12.0443 27.9306 11.9758 27.9059 11.9253 27.8619C11.8748 27.8179 11.8464 27.7583 11.8464 27.6961V27.4161C11.8464 27.2866 11.967 27.1816 12.1158 27.1816ZM12.2223 28.8685H29.7748C29.9236 28.8685 30.0442 28.9735 30.0442 29.103V29.383C30.0442 29.5125 29.9236 29.6175 29.7748 29.6175H12.2223C12.1508 29.6175 12.0823 29.5928 12.0318 29.5488C11.9813 29.5049 11.9529 29.4452 11.9529 29.383V29.103C11.9529 28.9735 12.0735 28.8685 12.2223 28.8685ZM12.3308 30.5555H29.6683C29.8171 30.5555 29.9376 30.6605 29.9376 30.79V31.07C29.9376 31.1994 29.8171 31.3044 29.6683 31.3044H12.3308C12.2616 31.3045 12.1951 31.2812 12.1453 31.2394C12.0954 31.1976 12.0661 31.1407 12.0635 31.0805V30.8005C12.0635 30.671 12.1841 30.566 12.3328 30.566L12.3308 30.5555ZM12.4393 32.2424H29.5598C29.7085 32.2424 29.8291 32.3474 29.8291 32.4769V32.7569C29.8291 32.8864 29.7085 32.9914 29.5598 32.9914H12.4393C12.3679 32.9914 12.2994 32.9667 12.2489 32.9227C12.1984 32.8787 12.17 32.8191 12.17 32.7569V32.4769C12.17 32.3474 12.2906 32.2424 12.4393 32.2424Z" fill="white"/>
</svg>
