<svg width="42" height="42" viewBox="0 0 42 42" fill="none" xmlns="http://www.w3.org/2000/svg">
<g filter="url(#filter0_d_29_28)">
<path fill-rule="evenodd" clip-rule="evenodd" d="M29.7569 2.19193C30.2909 -0.256069 33.7769 -0.271069 34.3379 2.17093L34.3619 2.28493L34.4129 2.50093C34.7098 3.76734 35.3727 4.91842 36.319 5.81086C37.2653 6.7033 38.4532 7.29766 39.7349 7.51993C42.2909 7.96693 42.2909 11.6359 39.7349 12.0799C38.4456 12.303 37.2512 12.9027 36.302 13.8032C35.3528 14.7038 34.6913 15.8651 34.4009 17.1409L34.3379 17.4289C33.7799 19.8739 30.2909 19.8589 29.7569 17.4079L29.6999 17.1619C29.4189 15.8833 28.764 14.7171 27.8185 13.8116C26.8729 12.9061 25.6795 12.3023 24.3899 12.0769C21.8399 11.6329 21.8399 7.96693 24.3899 7.52593C25.6758 7.30169 26.8663 6.70118 27.811 5.80034C28.7556 4.89949 29.4119 3.73876 29.6969 2.46493L29.7359 2.28493L29.7569 2.19193ZM3.31486 0.511931C2.9297 0.511537 2.54825 0.587059 2.19229 0.734179C1.83634 0.881299 1.51288 1.09713 1.24039 1.36934C0.967905 1.64155 0.751741 1.96479 0.604257 2.32059C0.456773 2.67639 0.380861 3.05777 0.380861 3.44293V15.8989C0.380861 17.5189 1.69486 18.8299 3.31486 18.8299H15.7739C17.3939 18.8299 18.7049 17.5189 18.7049 15.8989V3.44293C18.7053 3.05777 18.6297 2.67632 18.4826 2.32036C18.3355 1.96441 18.1197 1.64095 17.8475 1.36846C17.5752 1.09598 17.252 0.879811 16.8962 0.732327C16.5404 0.584843 16.159 0.508931 15.7739 0.508931L3.31486 0.511931ZM0.380861 26.2219C0.380861 24.6019 1.69486 23.2909 3.31486 23.2909H15.7739C17.3939 23.2909 18.7049 24.6019 18.7049 26.2219V38.6809C18.7049 40.3009 17.3939 41.6149 15.7739 41.6149H3.31486C2.92945 41.6153 2.54775 41.5397 2.1916 41.3924C1.83545 41.2451 1.51186 41.029 1.23933 40.7565C0.966804 40.4839 0.750702 40.1603 0.603395 39.8042C0.456087 39.448 0.380466 39.0663 0.380861 38.6809V26.2219ZM23.1659 26.2219C23.1659 24.6019 24.4769 23.2909 26.0969 23.2909H38.5559C40.1759 23.2909 41.4899 24.6019 41.4899 26.2219V38.6809C41.4899 40.3009 40.1759 41.6149 38.5559 41.6149H26.0999C25.7147 41.6149 25.3333 41.539 24.9775 41.3915C24.6217 41.244 24.2985 41.0279 24.0263 40.7554C23.7541 40.4829 23.5382 40.1594 23.3911 39.8035C23.244 39.4475 23.1685 39.0661 23.1689 38.6809V26.2249L23.1659 26.2219Z" fill="white"/>
</g>
<defs>
<filter id="filter0_d_29_28" x="-3.61914" y="0.347656" width="49.2715" height="49.2656" filterUnits="userSpaceOnUse" color-interpolation-filters="sRGB">
<feFlood flood-opacity="0" result="BackgroundImageFix"/>
<feColorMatrix in="SourceAlpha" type="matrix" values="0 0 0 0 0 0 0 0 0 0 0 0 0 0 0 0 0 0 127 0" result="hardAlpha"/>
<feOffset dy="4"/>
<feGaussianBlur stdDeviation="2"/>
<feComposite in2="hardAlpha" operator="out"/>
<feColorMatrix type="matrix" values="0 0 0 0 0 0 0 0 0 0 0 0 0 0 0 0 0 0 0.25 0"/>
<feBlend mode="normal" in2="BackgroundImageFix" result="effect1_dropShadow_29_28"/>
<feBlend mode="normal" in="SourceGraphic" in2="effect1_dropShadow_29_28" result="shape"/>
</filter>
</defs>
</svg>
